<?xml version="1.0" encoding="UTF-8" standalone="no"?>
<svg
   width="296.19467pt"
   height="560.37341pt"
   version="1.1"
   viewBox="0 0 296.19467 560.37341"
   id="svg6"
   xmlns="http://www.w3.org/2000/svg"
   xmlns:svg="http://www.w3.org/2000/svg">
  <defs
     id="defs10" />
  <g
     id="g4"
     transform="translate(-201.72694,0.36963131)">
    <path
       d="m 206.75,555.3 c 2.9609,2.9883 6.9883,4.6797 11.199,4.7031 4.2188,0.0391 8.2734,-1.6602 11.199,-4.7031 l 264.09,-264.1 c 2.9961,-2.957 4.6836,-6.9883 4.6836,-11.199 0,-4.2107 -1.6875,-8.2422 -4.6836,-11.199 L 229.148,4.652 c -2.9336,-3.1367 -7.0156,-4.9492 -11.309,-5.0195 -4.2969,-0.070312 -8.4336,1.6016 -11.473,4.6406 -3.0352,3.0352 -4.7109,7.1758 -4.6367,11.469 0.0703,4.293 1.8828,8.375 5.0195,11.309 l 252.89,252.95 -252.89,252.89 c -2.9844,2.9648 -4.6602,6.9961 -4.6602,11.203 0,4.2031 1.6758,8.2344 4.6602,11.199 z"
       id="path2" />
  </g>
</svg>
